<?xml version="1.0" encoding="utf-8"?>
<!-- Generator: Adobe Illustrator 18.1.0, SVG Export Plug-In . SVG Version: 6.00 Build 0)  -->
<svg version="1.1" id="Layer_1" xmlns="http://www.w3.org/2000/svg" xmlns:xlink="http://www.w3.org/1999/xlink" x="0px" y="0px"
	 viewBox="0 0 508.1 208.1" enable-background="new 0 0 508.1 208.1" xml:space="preserve">
<linearGradient id="XMLID_2_" gradientUnits="userSpaceOnUse" x1="97.6205" y1="206.0301" x2="84.2985" y2="92.5781">
	<stop  offset="0" style="stop-color:#394672"/>
	<stop  offset="0.9946" style="stop-color:#684D6F"/>
</linearGradient>
<path id="T" fill="url(#XMLID_2_)" d="M16.1,45c-5.2,3.3-8.4,9.3-8.9,15.5c-0.1,1.2-0.1,2.5,0.2,3.7c1,4.8,6,8.2,10.9,8.1
	c2.4,0,4.9-0.8,6.5-2.6s2.2-4.6,0.8-6.7c-1.3-2-4.6-2.5-6.2-0.7c1.1-0.4,2.4,0,3,1c0.6,0.9,0.5,2.3-0.3,3.1c-1,1-2.5,1.1-3.9,0.9
	c-0.8-0.1-1.6-0.2-2.2-0.7c-1.1-0.8-1.4-2.5-0.9-3.8s1.5-2.4,2.5-3.3c2-1.8,4.3-3.2,6.5-4.7c7.3-4.8,14.7-9.6,22.9-12.3
	c4-1.3,8.1-2.1,12.2-2.3c0.9-0.1,1.5,0.1,1.9,0.9c0.5,0.8,0.6,1.7,0.7,2.6c0.6,4.2,1.3,8.5,1.9,12.7c0.3,1.9,0.6,3.8,0.8,5.8
	c0.6,5.6,0.7,11.2,0.7,16.9c0.1,7.7,0.1,15.3,0.2,23c0,1.1,0,2.4,0,3.5c0,1.1,0,2.2,0,3.3c0,0.3,0,0.6,0,0.9c0,0.5,0.1,1,0.1,1.5
	v35.8c0,5.4-0.9,10.8-2.7,16c-1,3-2.2,6.2-4.1,8.7s-4.9,4.4-8.1,4.4c4.2,0.7,8,3.2,11.3,5.9c3.3,2.8,6.3,5.9,9.7,8.5
	c8.7,6.4,19.9,8.5,30.7,8.3c2,0,4-0.2,5.9-0.8c4.2-1.5,7.2-5.9,6.5-10.3c-0.7-4.4-5.3-7.8-9.6-6.8c-1.1,0.3-2.3,1.1-2,2.2
	c0.3,1,1.7,1.2,2.8,1.1c0.5-0.2,0.1-1.2-0.4-1c1.2-0.3,2.6,0.4,3.3,1.4c0.8,1,1,2.3,1.1,3.6c0,1.1-0.1,2.1-0.7,3
	c-0.7,1.1-2,1.6-3.3,1.9c-3.8,1-7.8,0.4-11.5-0.8c-1.5-0.5-2.9-1.1-4.1-2c-1.7-1.3-2.8-3.1-3.8-5C80,173.4,75.9,159.8,75,146
	c-0.1-1-0.3-1.9-0.4-2.8c-0.3-3.1-0.7-6.1-0.8-9.2c-0.1-2.9,0.1-5.7,0.1-8.6V70.6C73.6,62,75,53.5,78.3,45.6
	c0.5-1.3,1.2-2.7,2.5-3.4c0.8-0.4,1.7-0.4,2.5-0.4c7.6,0,15,2.6,22.4,4.4c11.4,2.8,23.2,3.9,35,3.2c2.8-0.2,5.4-1.8,7.2-3.9
	c1.8-2.1,2.8-4.8,3.1-7.5c0.3-1.9,0.2-4.1-1.3-5.4c-0.8-0.7-1.8-1-2.8-1.2c-1.4-0.3-2.9-0.4-4.4-0.4c-1.2,0-2.4,0.1-3.4,0.7
	c-1,0.6-1.8,1.7-1.7,2.9c0.2,1.3,1.4,2.2,2.7,2.6c-0.2,0-0.4,0-0.7,0c-0.4-0.6-0.3-1.5,0.2-2.1c0.5-0.6,1.2-0.9,1.9-1
	c2.3-0.3,4.5,1.6,4.9,3.8c0.4,2.2-0.8,4.6-2.6,5.9c-1.9,1.3-4.3,1.7-6.5,1.3c-1.8-0.3-3.5-0.9-5.3-1.5c-6.8-2.3-13.9-3.2-20.9-5
	c-7.1-1.8-14-4.4-21.2-5.5c-9.4-1.4-18.9-2-28.3-2.2c-5.3-0.1-10.7-0.1-15.9,1c-6.9,1.3-13.3,4.3-19.6,7.2
	c-3.6,1.7-7.3,3.3-10.4,5.8"/>
<linearGradient id="XMLID_3_" gradientUnits="userSpaceOnUse" x1="369.1707" y1="119.8855" x2="356.8904" y2="15.3053">
	<stop  offset="0" style="stop-color:#394672"/>
	<stop  offset="0.9946" style="stop-color:#684D6F"/>
</linearGradient>
<path id="XMLID_2568_" fill="url(#XMLID_3_)" d="M300,22c-4.8,3.1-7.7,8.6-8.2,14.3c-0.1,1.1-0.1,2.3,0.2,3.4
	c0.9,4.4,5.5,7.5,10.1,7.5c2.2,0,4.5-0.7,6-2.4c1.5-1.6,2-4.3,0.8-6.1c-1.2-1.9-4.3-2.3-5.7-0.6c1-0.4,2.2,0,2.8,0.9
	s0.5,2.1-0.3,2.9c-0.9,0.9-2.3,1-3.6,0.8c-0.7-0.1-1.5-0.2-2-0.6c-1-0.8-1.3-2.3-0.8-3.5c0.4-1.2,1.4-2.2,2.3-3c1.9-1.6,3.9-3,6-4.4
	c6.7-4.4,13.5-8.8,21.1-11.3c3.7-1.2,7.5-1.9,11.3-2.2c0.8-0.1,1.4,0.1,1.8,0.9s0.6,1.6,0.7,2.4c0.6,3.9,1.2,7.8,1.8,11.7
	c0.3,1.8,0.5,3.5,0.7,5.3c0.6,5.2,0.6,10.4,0.7,15.6c0.1,7.1,0.1,14.1,0.2,21.2c0,1.1,0,2.2,0,3.3c0,1,0,2,0,3c0,0.3,0,0.6,0,0.8
	c0,0.5,0.1,0.9,0.1,1.4v33c0,5-0.8,10-2.5,14.7c-1,2.8-2,5.8-3.8,8c-1.8,2.3-4.5,4-7.4,4.1c3.9,0.7,7.4,2.9,10.4,5.5
	c3,2.6,5.8,5.5,9,7.8c8,5.9,18.3,7.9,28.3,7.6c1.8,0,3.7-0.2,5.4-0.8c3.8-1.4,6.6-5.5,6-9.5c-0.6-4-4.9-7.2-8.9-6.2
	c-1,0.2-2.1,1.1-1.8,2c0.3,1,1.6,1.1,2.6,1.1c0.5-0.2,0.1-1.1-0.4-0.9c1.1-0.2,2.4,0.4,3.1,1.3c0.7,0.9,1,2.1,1,3.3
	c0,1-0.1,2-0.7,2.8c-0.7,1-1.9,1.5-3,1.8c-3.5,0.9-7.2,0.3-10.6-0.8c-1.3-0.4-2.7-1-3.8-1.8c-1.5-1.2-2.6-2.9-3.5-4.6
	c-6.2-11.2-9.9-23.7-10.8-36.5c-0.1-0.9-0.3-1.7-0.4-2.6c-0.3-2.8-0.6-5.6-0.7-8.5c-0.1-2.6,0.1-5.3,0.1-7.9V45.6
	c-0.2-7.9,1.1-15.8,4.1-23.1c0.5-1.2,1.1-2.5,2.3-3.1c0.7-0.3,1.5-0.4,2.3-0.4c7,0,13.8,2.4,20.7,4.1c10.5,2.6,21.4,3.6,32.2,3
	c2.5-0.1,5-1.7,6.7-3.6s2.5-4.4,2.9-7c0.2-1.8,0.1-3.8-1.2-5c-0.7-0.6-1.6-0.9-2.5-1.1C419.3,9.2,418,9,416.6,9
	c-1.1,0-2.2,0.1-3.2,0.7c-0.9,0.5-1.7,1.6-1.5,2.7c0.2,1.2,1.3,2.1,2.5,2.4c-0.2,0-0.4,0-0.6,0c-0.4-0.6-0.2-1.4,0.2-1.9
	c0.4-0.5,1.1-0.8,1.8-0.9c2.1-0.3,4.1,1.5,4.5,3.5s-0.7,4.2-2.4,5.5s-3.9,1.5-6,1.2c-1.7-0.2-3.2-0.9-4.8-1.4
	c-6.2-2.1-12.8-3-19.2-4.6c-6.5-1.6-12.9-4.1-19.5-5.1c-8.6-1.3-17.4-1.8-26.1-2c-4.9-0.1-9.8-0.1-14.7,0.9
	c-6.3,1.2-12.2,3.9-18.1,6.6c-3.3,1.5-6.7,3.1-9.6,5.4"/>
<linearGradient id="XMLID_4_" gradientUnits="userSpaceOnUse" x1="113.8564" y1="163.469" x2="103.5231" y2="75.469">
	<stop  offset="0" style="stop-color:#394672"/>
	<stop  offset="0.9946" style="stop-color:#684D6F"/>
</linearGradient>
<path id="XMLID_2567_" fill="url(#XMLID_4_)" d="M104.2,85.4c0.2-0.5,0.7-0.9,1.2-1.1c3.2-1.6,7.4-0.6,9.7,2.1
	c0.8,1,1.4,2.1,1.4,3.4s-0.4,2.5-1.4,3.3c-1.2,0.9-2.7,0.8-4.2,0.7c2.9,2.2,7.5,1.6,10-1.1s3.1-6.8,1.9-10.3
	c-0.5-1.4-1.3-2.7-2.6-3.5c-1.1-0.6-2.3-0.7-3.5-0.8c-4.6-0.4-9.3-0.9-13.9-0.3c-4.6,0.6-9.3,2.2-13.8,1.1c0.6,0.6,1.4,1.1,2,1.9
	c0.6,0.7,0.9,1.6,1.2,2.5c2.9,9,3.7,18.6,4.1,28.1c0.1,1.7,0.1,3.5,0,5.2c-0.3,2.9-1.3,5.7-1.6,8.6c-0.1,1.3-0.2,2.5-0.4,3.8
	c-0.3,1.7-1,3.3-1.5,5c-0.6,1.9-0.5,3.9-0.5,5.9h14.5c-0.6,0-0.9-0.9-1-1.5c-1-6.1-1.4-12.2-1.8-18.3c-0.1-1.5-0.2-3.1-0.3-4.6
	c-0.2-2.4-0.3-4.8-0.4-7.3c-0.2-3.7-0.3-7.4-0.3-11.2c0-2.1,0-4.2,0.3-6.3c0.2-1.7,0.6-3.5,1.2-5.1"/>
<linearGradient id="XMLID_5_" gradientUnits="userSpaceOnUse" x1="384.8055" y1="131.653" x2="374.4721" y2="43.653">
	<stop  offset="0" style="stop-color:#394672"/>
	<stop  offset="0.9946" style="stop-color:#684D6F"/>
</linearGradient>
<path id="XMLID_2566_" fill="url(#XMLID_5_)" d="M377,69.5c0.2-0.5,0.7-0.9,1.2-1.1c3.2-1.6,7.4-0.6,9.7,2.1c0.8,1,1.4,2.1,1.4,3.4
	s-0.4,2.5-1.4,3.3c-1.2,0.9-2.7,0.8-4.2,0.7c2.9,2.2,7.5,1.6,10-1.1c2.5-2.7,3.1-6.8,1.9-10.3c-0.5-1.4-1.3-2.7-2.6-3.5
	c-1.1-0.6-2.3-0.7-3.5-0.8c-4.6-0.4-9.3-0.9-13.9-0.3c-4.6,0.6-9.3,2.2-13.8,1.1c0.6,0.6,1.4,1.1,2,1.9c0.6,0.7,0.9,1.6,1.2,2.5
	c2.9,9,3.7,18.6,4.1,28.1c0.1,1.7,0.1,3.5,0,5.2c-0.3,2.9-1.3,5.7-1.6,8.6c-0.1,1.3-0.2,2.5-0.4,3.8c-0.3,1.7-1,3.3-1.5,5
	c-0.6,1.9-0.5,3.9-0.5,5.9h14.5c-0.6,0-0.9-0.9-1-1.5c-1-6.1-1.4-12.2-1.8-18.3c-0.1-1.5-0.2-3.1-0.3-4.6c-0.2-2.4-0.3-4.8-0.4-7.3
	c-0.2-3.7-0.3-7.4-0.3-11.2c0-2.1,0-4.2,0.3-6.3c0.2-1.7,0.6-3.5,1.2-5.1"/>
<linearGradient id="XMLID_6_" gradientUnits="userSpaceOnUse" x1="307.6343" y1="140.7148" x2="297.301" y2="52.7148">
	<stop  offset="0" style="stop-color:#394672"/>
	<stop  offset="0.9946" style="stop-color:#684D6F"/>
</linearGradient>
<path id="XMLID_2565_" fill="url(#XMLID_6_)" d="M301.8,94.8c0.2-0.5,0.6-0.8,1.1-1c2.9-1.4,6.8-0.6,8.9,1.9
	c0.7,0.9,1.3,1.9,1.3,3.1c0.1,1.1-0.4,2.3-1.3,3c-1.1,0.8-2.5,0.7-3.8,0.7c2.7,2,6.8,1.4,9.1-1c2.3-2.4,2.8-6.2,1.7-9.4
	c-0.5-1.3-1.2-2.5-2.4-3.2c-1-0.6-2.1-0.7-3.2-0.8c-4.2-0.4-8.5-0.8-12.6-0.2c-4.2,0.5-8.5,2-12.6,1c0.6,0.6,1.3,1,1.8,1.7
	c0.5,0.7,0.8,1.5,1.1,2.2c2.7,8.3,3.4,17,3.8,25.7c0.1,1.6,0.1,3.2,0,4.7c-0.3,2.7-1.2,5.2-1.5,7.9c-0.1,1.2-0.1,2.3-0.4,3.5
	c-0.3,1.6-0.9,3-1.3,4.6c-0.5,1.8-0.5,3.5-0.5,5.4h13.2c-0.6,0-0.9-0.8-1-1.4c-0.9-5.5-1.3-11.1-1.6-16.7c-0.1-1.4-0.2-2.8-0.3-4.2
	c-0.1-2.2-0.3-4.4-0.4-6.6c-0.2-3.4-0.3-6.8-0.3-10.2c0-1.9,0-3.8,0.2-5.7c0.2-1.6,0.6-3.2,1.1-4.7"/>
<linearGradient id="XMLID_7_" gradientUnits="userSpaceOnUse" x1="136.1861" y1="160.847" x2="125.8528" y2="72.847">
	<stop  offset="0" style="stop-color:#394672"/>
	<stop  offset="0.9946" style="stop-color:#684D6F"/>
</linearGradient>
<path id="XMLID_2564_" fill="url(#XMLID_7_)" d="M126.1,96.1c2.3,5,3.6,10.5,3.7,16c0,1.7,0,3.4-0.1,5c-0.1,1.7-0.1,3.4-0.2,5.1
	c-0.1,2-0.2,4-0.5,6c-0.6,3.3-2,6.4-3.6,9.4h13.8c-0.8-2.9-2.8-5.2-3.8-8c-0.7-1.9-0.9-3.9-1.1-5.9c-0.4-4-0.6-7.9-0.8-11.9
	c-0.1-1.4-0.1-2.8-0.1-4.2c0.1-4.1,1.1-8.4,3.2-12h-11.1c0,0.1-0.2-0.1-0.1-0.2s0.2,0,0.2,0.1C125.8,95.7,126,95.9,126.1,96.1"/>
<linearGradient id="XMLID_8_" gradientUnits="userSpaceOnUse" x1="168.6731" y1="157.0322" x2="158.3397" y2="69.0322">
	<stop  offset="0" style="stop-color:#394672"/>
	<stop  offset="0.9946" style="stop-color:#684D6F"/>
</linearGradient>
<path id="XMLID_2563_" fill="url(#XMLID_8_)" d="M161.6,65.6c0.8,0.8,2,1,3,0.5s1.6-1.6,1.4-2.7c-0.2-1.1-1-1.9-1.9-2.5
	c-1.5-0.9-3.5-1-5.1-0.4c-1,0.4-2,1.1-2.7,1.9c-2.6,2.6-4,6.1-4.5,9.7c-0.6,3.6-0.3,7.2,0,10.8c0.2,2.7,0.5,5.4,1.4,8
	c0.9,2.6,2.4,5,4.7,6.5c1.6,1,3.4,1.6,5.2,1.9c2.4,0.3,4.9,0.2,7-1.1c2.1-1.2,3.5-3.7,3-6.1c0.4,3.3,0,6.7-1.4,9.6
	c-1.5,2.9-4.1,5.4-7.2,6.4c-1.2,0.4-2.4,0.6-3.6,0.6c-1.5,0.1-3,0.1-4.5-0.4c-3.8-1.2-6.2-5-7.8-8.7c-2.7-6.1-4.3-12.7-4.6-19.3
	c-0.4-6.9,0.7-14.1,4.6-19.7c0.9-1.3,2-2.6,3.5-3.2c1-0.5,2.2-0.6,3.3-1c0.6-0.2,1.1-0.5,1.6-0.7c1.3-0.5,2.7-0.6,4.1-0.7
	c3.2-0.1,6.6,0.4,9.2,2.2c2.6,1.8,4.3,5.3,3.4,8.3c-0.7,2.5-3.1,4.3-5.7,4.4c-2.6,0.1-5.1-1.6-6-4"/>
<linearGradient id="XMLID_9_" gradientUnits="userSpaceOnUse" x1="193.9715" y1="154.0616" x2="183.6381" y2="66.0616">
	<stop  offset="0" style="stop-color:#394672"/>
	<stop  offset="0.9946" style="stop-color:#684D6F"/>
</linearGradient>
<path id="XMLID_2562_" fill="url(#XMLID_9_)" d="M176.1,112.7c-0.5,3.6-0.9,7.1-1.4,10.7c-0.5,3.8-1,7.7-2.5,11.2
	c-1.5,3.5-4.1,6.8-7.7,8.1c5.3,0.6,10.6,1.3,15.8,2.3c-1.2-3.4-0.8-7.2-0.3-10.8c0.5-3.8,0.9-7.6,1.4-11.3c0.5-4,1.4-8.6,5.1-10.3
	c1.4-0.6,3-0.7,4.5-0.8c0.9,0,1.9-0.1,2.6,0.5c0.5,0.5,0.7,1.2,0.9,1.8c1.7,7.2,2.5,14.7,2.4,22.1c0,1.2-0.1,2.5-0.5,3.7
	c-1,2.5-3.5,3.9-5.9,5.2c3.3-0.5,6.5,1.3,9.1,3.5c2.6,2.1,4.9,4.7,7.9,6.2s7.1,1.6,9.3-0.9c0.5-0.6,0.9-1.3,1.1-2
	c0.4-1.7-0.5-3.6-2.1-4.3s-3.6-0.3-4.7,1.1c1.3-0.7,3,0.7,2.8,2.1s-1.7,2.5-3.1,2.4c-1.4-0.1-2.7-1.1-3.5-2.3
	c-0.8-1.2-1.2-2.6-1.6-4c-2.3-8.3-4.7-16.6-7-24.9c-1.1-4-2.2-8.7,0-12.2c1.2-1.9,3.1-3.1,4.9-4.5c3.3-2.6,6.1-6,8-9.8
	c1.7-3.4,2.9-7.3,2-11s-3.9-7.1-7.7-7.3c2.6,1.3,4,4.3,4,7.2c0,2.9-1.1,5.7-2.3,8.3c-0.9,1.9-1.9,3.8-3.2,5.4
	c-3,3.6-7.6,5.6-12.1,6.9c-2.7,0.7-5.6,1.3-8.2,0.4c-0.4-2.2,0-4.5,0.3-6.6c1.1-8.4,2.3-16.8,3.4-25.2c0.8-5.6,1.6-11.4,4.2-16.4
	c0.5-0.9,1.3-1.9,2.3-1.8c-4-0.7-8.1-1.5-12.1-2.2c2,1.2,2.3,4,2.4,6.3c0.2,18.1-3.7,36-8.2,53.5"/>
<g id="XMLID_2558_">
	<linearGradient id="XMLID_10_" gradientUnits="userSpaceOnUse" x1="410.9691" y1="128.5808" x2="400.6358" y2="40.5808">
		<stop  offset="0" style="stop-color:#394672"/>
		<stop  offset="0.9946" style="stop-color:#684D6F"/>
	</linearGradient>
	<path id="XMLID_2559_" fill="url(#XMLID_10_)" d="M425.4,103.2c-0.8-3.4-2.7-6.7-5.6-8.5c-3.5-2.1-8.1-1.9-12-0.4
		c-1.6,0.6-3.2,1.4-4.5,2.6c-1.9,1.7-3.1,4.1-4.3,6.4c-2.2,4.4-4.4,8.8-5.4,13.6c-1.5,7.2-0.1,14.8,2.9,21.5c1.3,3,3.1,6,6,7.6
		c2.4,1.3,5.2,1.4,7.9,1.1c2.2-0.3,4.5-0.8,6.1-2.4c1.6-1.5,2.4-3.8,2.5-6c0.1-2.2-0.3-4.4-0.8-6.6c0.6,2.7-1.4,5.5-4,6.5
		c-2.6,0.9-5.6,0.2-7.8-1.5c-2.2-1.7-3.7-4.1-4.6-6.7c-2-5.4-2.1-11.4-0.8-17l-0.4,0c2.3-0.1,4.6,0,6.9,0.2c2.2,0.2,4.4,0.7,6.1,1.9
		c1.8,1.3,2.9,3.6,2.2,5.7c2-1,4-2,5.7-3.5C425.5,114.2,426.7,108.3,425.4,103.2z M418.5,108.7c-0.1,1-0.3,2.1-0.8,3
		c-3.8-2.7-8.3-4.3-12.9-4.8l0.3-0.5c0.7-1.1,1.5-2.1,2.2-3.2c0.9-1.4,2-2.8,3.6-3.4c0.6-0.2,1.3-0.3,1.9-0.3c1.4,0,2.8,0.4,3.9,1.2
		c1.1,0.8,1.9,2.2,1.8,3.6c-1.7-0.3-3.7-0.5-5,0.7c1.6-0.2,3.5-0.3,4.5,1C418.5,106.7,418.6,107.7,418.5,108.7z"/>
</g>
<linearGradient id="XMLID_11_" gradientUnits="userSpaceOnUse" x1="485.1996" y1="119.8643" x2="474.8663" y2="31.8643">
	<stop  offset="0" style="stop-color:#394672"/>
	<stop  offset="0.9946" style="stop-color:#684D6F"/>
</linearGradient>
<path id="XMLID_2557_" fill="url(#XMLID_11_)" d="M476.1,75.7c2.6-0.5,5.3-1.1,7.7-2.2c2.4-1.2,4.6-3,5.5-5.5
	c-2.8,5.7-4.5,11.9-5.2,18.2c0,0.4-0.1,0.7,0.1,1.1c0.2,0.3,0.6,0.5,0.9,0.6c2.4,0.7,5.1-0.2,7.5,0.7c1.2,0.4,2.2,1.3,3,2.3
	c2.4,2.9,3.3,7,2.3,10.6c-1,3.6-3.8,6.7-7.3,8c1.7-1.1,2.3-3.4,2.4-5.4c0.1-2.2-0.2-4.5-1.4-6.4c-1.2-1.9-3.3-3.3-5.5-3.2
	c-0.6,0-1.1,0.2-1.6,0.5c-0.7,0.5-0.9,1.5-1,2.3c-2,12.9-0.8,26.1,1.2,39c0.2,1.4,0.5,2.9,1.2,4.1s2,2.3,3.4,2.3
	c0.8,0,1.6-0.3,2.3-0.7c3.9-2.3,5.5-8,3.2-12c2.2,0.9,3.7,2.9,4.4,5.1c0.7,2.2,0.7,4.6,0.5,7c-0.3,4.3-1.6,9.1-5.3,11.2
	c-3.4,1.9-7.6,1.1-11.2-0.4c-1-0.4-2-0.9-2.9-1.6c-1.2-1.1-1.9-2.6-2.4-4.1c-2.7-7.7-2.4-16.2-1.6-24.3s2.2-16.4,1.3-24.5
	c-0.1-1.4-0.4-2.8-1.3-3.8c-0.7-0.8-1.8-1.2-2.8-1.7c-5-2.5-8.5-7.7-8.9-13.2c0.2,2.7,1.8,5.2,4.1,6.7c2.3,1.4,5.3,1.7,7.8,0.8
	c0.5-0.2,1-0.4,1.3-0.8c0.5-0.5,0.6-1.3,0.6-2c0.2-3.1-0.8-6.2-2.8-8.6"/>
<linearGradient id="XMLID_12_" gradientUnits="userSpaceOnUse" x1="451.6813" y1="123.8002" x2="441.348" y2="35.8002">
	<stop  offset="0" style="stop-color:#394672"/>
	<stop  offset="0.9946" style="stop-color:#684D6F"/>
</linearGradient>
<path id="XMLID_2554_" fill="url(#XMLID_12_)" d="M466.5,131c-4.5-13.8-1.2-29.1-5.6-42.9c-1.1-3.5-2.9-7.2-6.2-8.9
	c-1.5-0.8-3.2-1.1-4.8-1.2c-5-0.4-10.6,1-13.4,5.2c-2.4,3.6-2.3,8.2-2.1,12.5l0.1,0c-0.2-5.8,4.2-11.5,9.8-12.8
	c1.8-0.4,3.8-0.4,5.5,0.3c1.7,0.7,3.2,2.2,3.6,4c0.5,2.2-0.5,4.5-1.8,6.3c-3.5,4.9-9.1,7.8-12.5,12.8c-2.4,3.5-6.9,10.4-6.9,14.7
	c0,10.9,4.4,14.3,5.5,16c0.4,0.7,1,1.2,1.6,1.8c3.7,3.4,9,5.3,13.8,4.1c4.3-1.1,8-5,8.3-9.4c0.3,2.1,1.9,4,3.7,5.1
	c2.3,1.4,5.1,1.8,7.8,2.1C469.7,138.4,467.7,134.7,466.5,131z M458.3,110.9c-0.1,3.7-0.2,7.3-0.5,11c-0.2,2.6-0.5,5.2-1.5,7.7
	c-1,2.4-2.7,4.6-5.2,5.6c-2.5,1-5.6,0.4-7.7-1.4c-0.8-0.8-1.5-1.9-1.2-3c2.8-0.1,6.1-0.6,7.6-3.1c0.8-1.3,0.9-2.9,0.8-4.4
	c0-1.3-0.3-2.8-1.2-3.7c-1-0.9-2.6-1-3.9-0.9c1.8,0.3,3.3,1.9,3.5,3.7c0.2,1.8-0.9,3.7-2.5,4.4c-1,0.4-2.2,0.5-3.3,0.4
	c-0.5,0-1-0.1-1.5-0.3c-1.8-0.8-2.1-3.2-1.8-5.1c1.1-8.3,7.1-15.8,15.1-18.6l0.1,0.1c1.4,0.5,2.3,1.8,2.7,3.2
	C458.3,107.9,458.3,109.4,458.3,110.9z"/>
<linearGradient id="XMLID_13_" gradientUnits="userSpaceOnUse" x1="69.2965" y1="30.6115" x2="137.1957" y2="178.0131">
	<stop  offset="0" style="stop-color:#F49F5D"/>
	<stop  offset="0.2538" style="stop-color:#F29354"/>
	<stop  offset="0.6148" style="stop-color:#F0894C"/>
	<stop  offset="1" style="stop-color:#F0864A"/>
</linearGradient>
<path id="T" fill="url(#XMLID_13_)" d="M17.4,41.8c-5.2,3.3-8.4,9.3-8.9,15.5c-0.1,1.2-0.1,2.5,0.2,3.7
	c1,4.8,6,8.2,10.9,8.1c2.4,0,4.9-0.8,6.5-2.6c1.6-1.8,2.2-4.6,0.8-6.7c-1.3-2-4.6-2.5-6.2-0.7c1.1-0.4,2.4,0,3,1
	c0.6,0.9,0.5,2.3-0.3,3.1c-1,1-2.5,1.1-3.9,0.9c-0.8-0.1-1.6-0.2-2.2-0.7c-1.1-0.8-1.4-2.5-0.9-3.8s1.5-2.4,2.5-3.3
	c2-1.8,4.3-3.2,6.5-4.7c7.3-4.8,14.7-9.6,22.9-12.3c4-1.3,8.1-2.1,12.2-2.3c0.9-0.1,1.5,0.1,1.9,0.9c0.5,0.8,0.6,1.7,0.7,2.6
	c0.6,4.2,1.3,8.5,1.9,12.7c0.3,1.9,0.6,3.8,0.8,5.8c0.6,5.6,0.7,11.2,0.7,16.9c0.1,7.7,0.1,15.3,0.2,23c0,1.1,0,2.4,0,3.5
	c0,1.1,0,2.2,0,3.3c0,0.3,0,0.6,0,0.9c0,0.5,0.1,1,0.1,1.5V144c0,5.4-0.9,10.8-2.7,16c-1,3-2.2,6.2-4.1,8.7c-2,2.5-4.9,4.4-8.1,4.4
	c4.2,0.7,8,3.2,11.3,5.9c3.3,2.8,6.3,5.9,9.7,8.5c8.7,6.4,19.9,8.5,30.7,8.3c2,0,4-0.2,5.9-0.8c4.2-1.5,7.2-5.9,6.5-10.3
	c-0.7-4.4-5.3-7.8-9.6-6.8c-1.1,0.3-2.3,1.1-2,2.2c0.3,1,1.7,1.2,2.8,1.1c0.5-0.2,0.1-1.2-0.4-1c1.2-0.3,2.6,0.4,3.3,1.4
	c0.8,1,1,2.3,1.1,3.6c0,1.1-0.1,2.1-0.7,3c-0.7,1.1-2,1.6-3.3,1.9c-3.8,1-7.8,0.4-11.5-0.8c-1.5-0.5-2.9-1.1-4.1-2
	c-1.7-1.3-2.8-3.1-3.8-5c-6.7-12.1-10.8-25.7-11.7-39.6c-0.1-1-0.3-1.9-0.4-2.8c-0.3-3.1-0.7-6.1-0.8-9.2c-0.1-2.9,0.1-5.7,0.1-8.6
	V67.5c-0.3-8.6,1.1-17.1,4.4-25.1c0.5-1.3,1.2-2.7,2.5-3.4c0.8-0.4,1.7-0.4,2.5-0.4c7.6,0,15,2.6,22.4,4.4c11.4,2.8,23.2,3.9,35,3.2
	c2.8-0.2,5.4-1.8,7.2-3.9s2.8-4.8,3.1-7.5c0.3-1.9,0.2-4.1-1.3-5.4c-0.8-0.7-1.8-1-2.8-1.2c-1.4-0.3-2.9-0.4-4.4-0.4
	c-1.2,0-2.4,0.1-3.4,0.7c-1,0.6-1.8,1.7-1.7,2.9c0.2,1.3,1.4,2.2,2.7,2.6c-0.2,0-0.4,0-0.7,0c-0.4-0.6-0.3-1.5,0.2-2.1
	c0.5-0.6,1.2-0.9,1.9-1c2.3-0.3,4.5,1.6,4.9,3.8c0.4,2.2-0.8,4.6-2.6,5.9s-4.3,1.7-6.5,1.3c-1.8-0.3-3.5-0.9-5.3-1.5
	c-6.8-2.3-13.9-3.2-20.9-5c-7.1-1.8-14-4.4-21.2-5.5c-9.4-1.4-18.9-2-28.3-2.2c-5.3-0.1-10.7-0.1-15.9,1c-6.9,1.3-13.3,4.3-19.6,7.2
	c-3.6,1.7-7.3,3.3-10.4,5.8"/>
<linearGradient id="XMLID_14_" gradientUnits="userSpaceOnUse" x1="369.855" y1="61.2783" x2="394.4155" y2="150.4091">
	<stop  offset="0" style="stop-color:#F49F5D"/>
	<stop  offset="0.2538" style="stop-color:#F29354"/>
	<stop  offset="0.6148" style="stop-color:#F0894C"/>
	<stop  offset="1" style="stop-color:#F0864A"/>
</linearGradient>
<path id="XMLID_2545_" fill="url(#XMLID_14_)" d="M301.2,19.1c-4.8,3.1-7.7,8.6-8.2,14.3c-0.1,1.1-0.1,2.3,0.2,3.4
	c0.9,4.4,5.5,7.5,10.1,7.5c2.2,0,4.5-0.7,6-2.4c1.5-1.6,2-4.3,0.8-6.1c-1.2-1.9-4.3-2.3-5.7-0.6c1-0.4,2.2,0,2.8,0.9
	s0.5,2.1-0.3,2.9c-0.9,0.9-2.3,1-3.6,0.8c-0.7-0.1-1.5-0.2-2-0.6c-1-0.8-1.3-2.3-0.8-3.5c0.4-1.2,1.4-2.2,2.3-3c1.9-1.6,3.9-3,6-4.4
	c6.7-4.4,13.5-8.8,21.1-11.3c3.7-1.2,7.5-1.9,11.3-2.2c0.8-0.1,1.4,0.1,1.8,0.9c0.4,0.7,0.6,1.6,0.7,2.4c0.6,3.9,1.2,7.8,1.8,11.7
	c0.3,1.8,0.5,3.5,0.7,5.3c0.6,5.2,0.6,10.4,0.7,15.6c0.1,7.1,0.1,14.1,0.2,21.2c0,1.1,0,2.2,0,3.3c0,1,0,2,0,3c0,0.3,0,0.6,0,0.8
	c0,0.5,0.1,0.9,0.1,1.4v33c0,5-0.8,10-2.5,14.7c-0.9,2.8-2,5.8-3.8,8c-1.8,2.3-4.5,4-7.4,4.1c3.9,0.7,7.4,2.9,10.4,5.5
	c3,2.6,5.8,5.5,9,7.8c8,5.9,18.3,7.9,28.3,7.6c1.8,0,3.7-0.2,5.4-0.8c3.8-1.4,6.6-5.5,6-9.5s-4.9-7.2-8.9-6.2c-1,0.2-2.1,1.1-1.8,2
	c0.3,1,1.6,1.1,2.6,1.1c0.5-0.2,0.1-1.1-0.4-0.9c1.1-0.2,2.4,0.4,3.1,1.3c0.7,0.9,1,2.1,1,3.3c0,1-0.1,2-0.7,2.8
	c-0.7,1-1.9,1.5-3,1.8c-3.5,0.9-7.2,0.3-10.6-0.8c-1.3-0.4-2.7-1-3.8-1.8c-1.5-1.2-2.6-2.9-3.5-4.6c-6.2-11.2-9.9-23.7-10.8-36.5
	c-0.1-0.9-0.3-1.7-0.4-2.6c-0.3-2.8-0.6-5.6-0.7-8.5c-0.1-2.6,0.1-5.3,0.1-7.9V42.7c-0.2-7.9,1.1-15.8,4.1-23.1
	c0.5-1.2,1.1-2.5,2.3-3.1c0.7-0.3,1.5-0.4,2.3-0.4c7,0,13.8,2.4,20.7,4.1c10.5,2.6,21.4,3.6,32.2,3c2.5-0.1,5-1.7,6.7-3.6
	s2.5-4.4,2.9-7c0.2-1.8,0.1-3.8-1.2-5c-0.7-0.6-1.6-0.9-2.5-1.1c-1.3-0.3-2.7-0.4-4.1-0.4c-1.1,0-2.2,0.1-3.2,0.7
	c-0.9,0.5-1.7,1.6-1.5,2.7c0.2,1.2,1.3,2.1,2.5,2.4c-0.2,0-0.4,0-0.6,0c-0.4-0.6-0.2-1.4,0.2-1.9s1.1-0.8,1.8-0.9
	c2.1-0.3,4.1,1.5,4.5,3.5s-0.7,4.2-2.4,5.5c-1.7,1.2-3.9,1.5-6,1.2c-1.7-0.2-3.2-0.9-4.8-1.4c-6.2-2.1-12.8-3-19.2-4.6
	c-6.5-1.6-12.9-4.1-19.5-5.1c-8.6-1.3-17.4-1.8-26.1-2c-4.9-0.1-9.8-0.1-14.7,0.9c-6.3,1.2-12.2,3.9-18.1,6.6
	c-3.3,1.5-6.7,3.1-9.6,5.4"/>
<line id="XMLID_2544_" fill="#231F20" x1="75" y1="123.9" x2="75" y2="123.9"/>
<linearGradient id="XMLID_15_" gradientUnits="userSpaceOnUse" x1="100.8619" y1="89.0266" x2="120.1952" y2="138.0266">
	<stop  offset="0" style="stop-color:#F49F5D"/>
	<stop  offset="0.2538" style="stop-color:#F29354"/>
	<stop  offset="0.6148" style="stop-color:#F0894C"/>
	<stop  offset="1" style="stop-color:#F0864A"/>
</linearGradient>
<path id="XMLID_2543_" fill="url(#XMLID_15_)" d="M105.2,82.9c0.2-0.5,0.7-0.9,1.2-1.1c3.2-1.6,7.4-0.6,9.7,2.1
	c0.8,1,1.4,2.1,1.4,3.4s-0.4,2.5-1.4,3.3c-1.2,0.9-2.7,0.8-4.2,0.7c2.9,2.2,7.5,1.6,10-1.1s3.1-6.8,1.9-10.3
	c-0.5-1.4-1.3-2.7-2.6-3.5c-1.1-0.6-2.3-0.7-3.5-0.8c-4.6-0.4-9.3-0.9-13.9-0.3c-4.6,0.6-9.3,2.2-13.8,1.1c0.6,0.6,1.4,1.1,2,1.9
	c0.6,0.7,0.9,1.6,1.2,2.5c2.9,9,3.7,18.6,4.1,28.1c0.1,1.7,0.1,3.5,0,5.2c-0.3,2.9-1.3,5.7-1.6,8.6c-0.1,1.3-0.2,2.5-0.4,3.8
	c-0.3,1.7-1,3.3-1.5,5c-0.6,1.9-0.5,3.9-0.5,5.9h14.5c-0.6,0-0.9-0.9-1-1.5c-1-6.1-1.4-12.2-1.8-18.3c-0.1-1.5-0.2-3.1-0.3-4.6
	c-0.2-2.4-0.3-4.8-0.4-7.3c-0.2-3.7-0.3-7.4-0.3-11.2c0-2.1,0-4.2,0.3-6.3c0.2-1.7,0.6-3.5,1.2-5.1"/>
<linearGradient id="XMLID_16_" gradientUnits="userSpaceOnUse" x1="388.1352" y1="109.347" x2="399.4685" y2="137.347">
	<stop  offset="0" style="stop-color:#F49F5D"/>
	<stop  offset="0.2538" style="stop-color:#F29354"/>
	<stop  offset="0.6148" style="stop-color:#F0894C"/>
	<stop  offset="1" style="stop-color:#F0864A"/>
</linearGradient>
<path id="XMLID_2542_" fill="url(#XMLID_16_)" d="M378.1,67c0.2-0.5,0.7-0.9,1.2-1.1c3.2-1.6,7.4-0.6,9.7,2.1c0.8,1,1.4,2.1,1.4,3.4
	s-0.4,2.5-1.4,3.3c-1.2,0.9-2.7,0.8-4.2,0.7c2.9,2.2,7.5,1.6,10-1.1c2.5-2.7,3.1-6.8,1.9-10.3c-0.5-1.4-1.3-2.7-2.6-3.5
	c-1.1-0.6-2.3-0.7-3.5-0.8c-4.6-0.4-9.3-0.9-13.9-0.3c-4.6,0.6-9.3,2.2-13.8,1.1c0.6,0.6,1.4,1.1,2,1.9c0.6,0.7,0.9,1.6,1.2,2.5
	c2.9,9,3.7,18.6,4.1,28.1c0.1,1.7,0.1,3.5,0,5.2c-0.3,2.9-1.3,5.7-1.6,8.6c-0.1,1.3-0.2,2.5-0.4,3.8c-0.3,1.7-1,3.3-1.5,5
	c-0.6,1.9-0.5,3.9-0.5,5.9h14.5c-0.6,0-0.9-0.9-1-1.5c-1-6.1-1.4-12.2-1.8-18.3c-0.1-1.5-0.2-3.1-0.3-4.6c-0.2-2.4-0.3-4.8-0.4-7.3
	c-0.2-3.7-0.3-7.4-0.3-11.2c0-2.1,0-4.2,0.3-6.3c0.2-1.7,0.6-3.5,1.2-5.1"/>
<linearGradient id="XMLID_17_" gradientUnits="userSpaceOnUse" x1="301.533" y1="102.5365" x2="315.8664" y2="146.2032">
	<stop  offset="0" style="stop-color:#F49F5D"/>
	<stop  offset="0.2538" style="stop-color:#F29354"/>
	<stop  offset="0.6148" style="stop-color:#F0894C"/>
	<stop  offset="1" style="stop-color:#F0864A"/>
</linearGradient>
<path id="XMLID_2541_" fill="url(#XMLID_17_)" d="M302.8,92.3c0.2-0.5,0.6-0.8,1.1-1c2.9-1.4,6.8-0.6,8.9,1.9
	c0.7,0.9,1.3,1.9,1.3,3.1c0.1,1.1-0.4,2.3-1.3,3c-1.1,0.8-2.5,0.7-3.8,0.7c2.7,2,6.8,1.4,9.1-1c2.3-2.4,2.8-6.2,1.7-9.4
	c-0.5-1.3-1.2-2.5-2.4-3.2c-1-0.6-2.1-0.7-3.2-0.8c-4.2-0.4-8.5-0.8-12.6-0.2c-4.2,0.5-8.5,2-12.6,1c0.6,0.6,1.3,1,1.8,1.7
	c0.5,0.7,0.8,1.5,1.1,2.2c2.7,8.3,3.4,17,3.8,25.7c0.1,1.6,0.1,3.2,0,4.7c-0.3,2.7-1.2,5.2-1.5,7.9c-0.1,1.2-0.1,2.3-0.4,3.5
	c-0.3,1.6-0.9,3-1.3,4.6c-0.5,1.8-0.5,3.5-0.5,5.4h13.2c-0.6,0-0.9-0.8-1-1.4c-0.9-5.5-1.3-11.1-1.6-16.7c-0.1-1.4-0.2-2.8-0.3-4.2
	c-0.1-2.2-0.3-4.4-0.4-6.6c-0.2-3.4-0.3-6.8-0.3-10.2c0-1.9,0-3.8,0.2-5.7c0.2-1.6,0.6-3.2,1.1-4.7"/>
<linearGradient id="XMLID_18_" gradientUnits="userSpaceOnUse" x1="126.3772" y1="114.0112" x2="140.212" y2="114.0112">
	<stop  offset="0" style="stop-color:#F49F5D"/>
	<stop  offset="0.2538" style="stop-color:#F29354"/>
	<stop  offset="0.6148" style="stop-color:#F0894C"/>
	<stop  offset="1" style="stop-color:#F0864A"/>
</linearGradient>
<path id="XMLID_2540_" fill="url(#XMLID_18_)" d="M127.1,93.6c2.3,5,3.6,10.5,3.7,16c0,1.7,0,3.4-0.1,5c-0.1,1.7-0.1,3.4-0.2,5.1
	c-0.1,2-0.2,4-0.5,6c-0.6,3.3-2,6.4-3.6,9.4h13.8c-0.8-2.9-2.8-5.2-3.8-8c-0.7-1.9-0.9-3.9-1.1-5.9c-0.4-4-0.6-7.9-0.8-11.9
	c-0.1-1.4-0.1-2.8-0.1-4.2c0.1-4.1,1.1-8.4,3.2-12h-11.1c0,0.1-0.2-0.1-0.1-0.2s0.2,0,0.2,0.1C126.8,93.2,127,93.4,127.1,93.6"/>
<linearGradient id="XMLID_19_" gradientUnits="userSpaceOnUse" x1="130.1286" y1="86.3563" x2="135.2502" y2="86.3563">
	<stop  offset="0" style="stop-color:#F49F5D"/>
	<stop  offset="0.2538" style="stop-color:#F29354"/>
	<stop  offset="0.6148" style="stop-color:#F0894C"/>
	<stop  offset="1" style="stop-color:#F0864A"/>
</linearGradient>
<path id="XMLID_2539_" fill="url(#XMLID_19_)" d="M131.8,83.9c-0.5,0.4-1.1,0.9-1.4,1.6s-0.4,1.4-0.1,2c0.4,0.7,1.2,1.1,2,1.3
	c0.6,0.2,1.3,0.3,1.9,0c0.7-0.3,1-1.1,1-1.8s-0.4-1.4-0.9-2c-0.3-0.3-0.6-0.6-1.1-0.8c-0.6-0.2-1.3-0.1-1.9,0"/>
<linearGradient id="XMLID_20_" gradientUnits="userSpaceOnUse" x1="161.4222" y1="78.0931" x2="179.0889" y2="148.7598">
	<stop  offset="0" style="stop-color:#F49F5D"/>
	<stop  offset="0.2538" style="stop-color:#F29354"/>
	<stop  offset="0.6148" style="stop-color:#F0894C"/>
	<stop  offset="1" style="stop-color:#F0864A"/>
</linearGradient>
<path id="XMLID_2538_" fill="url(#XMLID_20_)" d="M162.6,63.2c0.8,0.8,2,1,3,0.5c1-0.5,1.6-1.6,1.4-2.7c-0.2-1.1-1-1.9-1.9-2.5
	c-1.5-0.9-3.5-1-5.1-0.4c-1,0.4-2,1.1-2.7,1.9c-2.6,2.6-4,6.1-4.5,9.7c-0.6,3.6-0.3,7.2,0,10.8c0.2,2.7,0.5,5.4,1.4,8
	c0.9,2.6,2.4,5,4.7,6.5c1.6,1,3.4,1.6,5.2,1.9c2.4,0.3,4.9,0.2,7-1.1c2.1-1.2,3.5-3.7,3-6.1c0.4,3.3,0,6.7-1.4,9.6
	c-1.5,2.9-4.1,5.4-7.2,6.4c-1.2,0.4-2.4,0.6-3.6,0.6c-1.5,0.1-3,0.1-4.5-0.4c-3.8-1.2-6.2-5-7.8-8.7c-2.7-6.1-4.3-12.7-4.6-19.3
	c-0.4-6.9,0.7-14.1,4.6-19.7c0.9-1.3,2-2.6,3.5-3.2c1-0.5,2.2-0.6,3.3-1c0.6-0.2,1.1-0.5,1.6-0.7c1.3-0.5,2.7-0.6,4.1-0.7
	c3.2-0.1,6.6,0.4,9.2,2.2c2.6,1.8,4.3,5.3,3.4,8.3c-0.7,2.5-3.1,4.3-5.7,4.4c-2.6,0.1-5.1-1.6-6-4"/>
<linearGradient id="XMLID_21_" gradientUnits="userSpaceOnUse" x1="189.6685" y1="109.2135" x2="202.3352" y2="151.8802">
	<stop  offset="0" style="stop-color:#F49F5D"/>
	<stop  offset="0.2538" style="stop-color:#F29354"/>
	<stop  offset="0.6148" style="stop-color:#F0894C"/>
	<stop  offset="1" style="stop-color:#F0864A"/>
</linearGradient>
<path id="XMLID_2537_" fill="url(#XMLID_21_)" d="M177.1,110.2c-0.5,3.6-0.9,7.1-1.4,10.7c-0.5,3.8-1,7.7-2.5,11.2
	c-1.5,3.5-4.1,6.8-7.7,8.1c5.3,0.6,10.6,1.3,15.8,2.3c-1.2-3.4-0.8-7.2-0.3-10.8c0.5-3.8,0.9-7.6,1.4-11.3c0.5-4,1.4-8.6,5.1-10.3
	c1.4-0.6,3-0.7,4.5-0.8c0.9,0,1.9-0.1,2.6,0.5c0.5,0.5,0.7,1.2,0.9,1.8c1.7,7.2,2.5,14.7,2.4,22.1c0,1.2-0.1,2.5-0.5,3.7
	c-1,2.5-3.5,3.9-5.9,5.2c3.3-0.5,6.5,1.3,9.1,3.5c2.6,2.1,4.9,4.7,7.9,6.2c3,1.5,7.1,1.6,9.3-0.9c0.5-0.6,0.9-1.3,1.1-2
	c0.4-1.7-0.5-3.6-2.1-4.3c-1.6-0.8-3.6-0.3-4.7,1.1c1.3-0.7,3,0.7,2.8,2.1s-1.7,2.5-3.1,2.4s-2.7-1.1-3.5-2.3
	c-0.8-1.2-1.2-2.6-1.6-4c-2.3-8.3-4.7-16.6-7-24.9c-1.1-4-2.2-8.7,0-12.2c1.2-1.9,3.1-3.1,4.9-4.5c3.3-2.6,6.1-6,8-9.8
	c1.7-3.4,2.9-7.3,2-11s-3.9-7.1-7.7-7.3c2.6,1.3,4,4.3,4,7.2c0,2.9-1.1,5.7-2.3,8.3c-0.9,1.9-1.9,3.8-3.2,5.4
	c-3,3.6-7.6,5.6-12.1,6.9c-2.7,0.7-5.6,1.3-8.2,0.4c-0.4-2.2,0-4.5,0.3-6.6c1.1-8.4,2.3-16.8,3.4-25.2c0.8-5.6,1.6-11.4,4.2-16.4
	c0.5-0.9,1.3-1.9,2.3-1.8c-4-0.7-8.1-1.5-12.1-2.2c2,1.2,2.3,4,2.4,6.3c0.2,18.1-3.7,36-8.2,53.5"/>
<g id="XMLID_2533_">
	<linearGradient id="XMLID_22_" gradientUnits="userSpaceOnUse" x1="406.822" y1="102.9951" x2="422.822" y2="151.6617">
		<stop  offset="0" style="stop-color:#F49F5D"/>
		<stop  offset="0.2538" style="stop-color:#F29354"/>
		<stop  offset="0.6148" style="stop-color:#F0894C"/>
		<stop  offset="1" style="stop-color:#F0864A"/>
	</linearGradient>
	<path id="XMLID_2534_" fill="url(#XMLID_22_)" d="M426.4,100.7c-0.8-3.4-2.7-6.7-5.6-8.5c-3.5-2.1-8.1-1.9-12-0.4
		c-1.6,0.6-3.2,1.4-4.5,2.6c-1.9,1.7-3.1,4.1-4.3,6.4c-2.2,4.4-4.4,8.8-5.4,13.6c-1.5,7.2-0.1,14.8,2.9,21.5c1.3,3,3.1,6,6,7.6
		c2.4,1.3,5.2,1.4,7.9,1.1c2.2-0.3,4.5-0.8,6.1-2.4c1.6-1.5,2.4-3.8,2.5-6c0.1-2.2-0.3-4.4-0.8-6.6c0.6,2.7-1.4,5.5-4,6.5
		c-2.6,0.9-5.6,0.2-7.8-1.5c-2.2-1.7-3.7-4.1-4.6-6.7c-2-5.4-2.1-11.4-0.8-17l-0.4,0c2.3-0.1,4.6,0,6.9,0.2c2.2,0.2,4.4,0.7,6.1,1.9
		c1.8,1.3,2.9,3.6,2.2,5.7c2-1,4-2,5.7-3.5C426.5,111.7,427.7,105.8,426.4,100.7z M419.5,106.2c-0.1,1-0.3,2.1-0.8,3
		c-3.8-2.7-8.3-4.3-12.9-4.8l0.3-0.5c0.7-1.1,1.5-2.1,2.2-3.2c0.9-1.4,2-2.8,3.6-3.4c0.6-0.2,1.3-0.3,1.9-0.3c1.4,0,2.8,0.4,3.9,1.2
		c1.1,0.8,1.9,2.2,1.8,3.6c-1.7-0.3-3.7-0.5-5,0.7c1.6-0.2,3.5-0.3,4.5,1C419.6,104.2,419.6,105.3,419.5,106.2z"/>
</g>
<linearGradient id="XMLID_23_" gradientUnits="userSpaceOnUse" x1="488.6471" y1="115.4777" x2="504.9804" y2="158.4777">
	<stop  offset="0" style="stop-color:#F49F5D"/>
	<stop  offset="0.2538" style="stop-color:#F29354"/>
	<stop  offset="0.6148" style="stop-color:#F0894C"/>
	<stop  offset="1" style="stop-color:#F0864A"/>
</linearGradient>
<path id="XMLID_2532_" fill="url(#XMLID_23_)" d="M477.2,73.3c2.6-0.5,5.3-1.1,7.7-2.2c2.4-1.2,4.6-3,5.5-5.5
	c-2.8,5.7-4.5,11.9-5.2,18.2c0,0.4-0.1,0.7,0.1,1.1c0.2,0.3,0.6,0.5,0.9,0.6c2.4,0.7,5.1-0.2,7.5,0.7c1.2,0.4,2.2,1.3,3,2.3
	c2.4,2.9,3.3,7,2.3,10.6c-1,3.6-3.8,6.7-7.3,8c1.7-1.1,2.3-3.4,2.4-5.4c0.1-2.2-0.2-4.5-1.4-6.4c-1.2-1.9-3.3-3.3-5.5-3.2
	c-0.6,0-1.1,0.2-1.6,0.5c-0.7,0.5-0.9,1.5-1,2.3c-2,12.9-0.8,26.1,1.2,39c0.2,1.4,0.5,2.9,1.2,4.1c0.7,1.2,2,2.3,3.4,2.3
	c0.8,0,1.6-0.3,2.3-0.7c3.9-2.3,5.5-8,3.2-12c2.2,0.9,3.7,2.9,4.4,5.1c0.7,2.2,0.7,4.6,0.5,7c-0.3,4.3-1.6,9.1-5.3,11.2
	c-3.4,1.9-7.6,1.1-11.2-0.4c-1-0.4-2-0.9-2.9-1.6c-1.2-1.1-1.9-2.6-2.4-4.1c-2.7-7.7-2.4-16.2-1.6-24.3s2.2-16.4,1.3-24.5
	c-0.1-1.4-0.4-2.8-1.3-3.8c-0.7-0.8-1.8-1.2-2.8-1.7c-5-2.5-8.5-7.7-8.9-13.2c0.2,2.7,1.8,5.2,4.1,6.7c2.3,1.4,5.3,1.7,7.8,0.8
	c0.5-0.2,1-0.4,1.3-0.8c0.5-0.5,0.6-1.3,0.6-2c0.2-3.1-0.8-6.2-2.8-8.6"/>
<linearGradient id="XMLID_24_" gradientUnits="userSpaceOnUse" x1="452.4368" y1="113.9185" x2="469.4368" y2="144.9185">
	<stop  offset="0" style="stop-color:#F49F5D"/>
	<stop  offset="0.2538" style="stop-color:#F29354"/>
	<stop  offset="0.6148" style="stop-color:#F0894C"/>
	<stop  offset="1" style="stop-color:#F0864A"/>
</linearGradient>
<path id="XMLID_2529_" fill="url(#XMLID_24_)" d="M467.5,128.5c-4.5-13.8-1.2-29.1-5.6-42.9c-1.1-3.5-2.9-7.2-6.2-8.9
	c-1.5-0.8-3.2-1.1-4.8-1.2c-5-0.4-10.6,1-13.4,5.2c-2.4,3.6-2.3,8.2-2.1,12.5l0.1,0c-0.2-5.8,4.2-11.5,9.8-12.8
	c1.8-0.4,3.8-0.4,5.5,0.3c1.7,0.7,3.2,2.2,3.6,4c0.5,2.2-0.5,4.5-1.8,6.3c-3.5,4.9-9.1,7.8-12.5,12.8c-2.4,3.5-6.9,10.4-6.9,14.7
	c0,10.9,4.4,14.3,5.5,16c0.4,0.7,1,1.2,1.6,1.8c3.7,3.4,9,5.3,13.8,4.1c4.3-1.1,8-5,8.3-9.4c0.3,2.1,1.9,4,3.7,5.1
	c2.3,1.4,5.1,1.8,7.8,2.1C470.7,136,468.7,132.3,467.5,128.5z M459.3,108.4c-0.1,3.7-0.2,7.3-0.5,11c-0.2,2.6-0.5,5.2-1.5,7.7
	c-1,2.4-2.7,4.6-5.2,5.6c-2.5,1-5.6,0.4-7.7-1.4c-0.8-0.8-1.5-1.9-1.2-3c2.8-0.1,6.1-0.6,7.6-3.1c0.8-1.3,0.9-2.9,0.8-4.4
	c0-1.3-0.3-2.8-1.2-3.7c-1-0.9-2.6-1-3.9-0.9c1.8,0.3,3.3,1.9,3.5,3.7c0.2,1.8-0.9,3.7-2.5,4.4c-1,0.4-2.2,0.5-3.3,0.4
	c-0.5,0-1-0.1-1.5-0.3c-1.8-0.8-2.1-3.2-1.8-5.1c1.1-8.3,7.1-15.8,15.1-18.6l0.1,0.1c1.4,0.5,2.3,1.8,2.7,3.2
	C459.3,105.5,459.3,107,459.3,108.4z"/>
<linearGradient id="XMLID_25_" gradientUnits="userSpaceOnUse" x1="75.1479" y1="169.9775" x2="65.5787" y2="173.6759">
	<stop  offset="0" style="stop-color:#F49F5D"/>
	<stop  offset="0.2538" style="stop-color:#F29354"/>
	<stop  offset="0.6148" style="stop-color:#F0894C"/>
	<stop  offset="1" style="stop-color:#F0864A"/>
</linearGradient>
<path id="T" fill="url(#XMLID_25_)" d="M70.7,143.8c0.3,5.5,0.1,11.1-1.3,16.4s-4.1,10.5-8.3,14c2.8-0.6,5.8,0.9,7.9,2.9
	c2.1,2,3.7,4.5,5.6,6.6c3.7,4.3,8.7,7.4,14.2,8.9c-0.8-0.2-1.3-1.1-1.7-1.8c-3-5.6-6-11.2-9.1-16.7c-0.8-1.5-1.6-3-2.2-4.6
	c-0.4-1.2-0.7-2.5-0.9-3.8c-1.4-7.2-2.9-14.4-4.3-21.5"/>
<linearGradient id="XMLID_26_" gradientUnits="userSpaceOnUse" x1="87.8629" y1="25.518" x2="96.942" y2="40.9312">
	<stop  offset="0" style="stop-color:#F49F5D"/>
	<stop  offset="0.2538" style="stop-color:#F29354"/>
	<stop  offset="0.6148" style="stop-color:#F0894C"/>
	<stop  offset="1" style="stop-color:#F0864A"/>
</linearGradient>
<path id="T" opacity="0.56" fill="url(#XMLID_26_)" d="M71.1,52.3c0.8-3.9,1.9-7.8,3.4-11.5c0.5-1.3,1.1-2.6,2.1-3.4
	c0.9-0.8,2.1-1.1,3.2-1.4c6.1-1.3,12.4-0.3,18.4,1.3s11.8,3.8,17.9,4.9c4.9,0.9,9.9,1,14.8,1.1c-7.9-2.1-15.8-4.1-23.7-6.2
	c-8.9-2.3-18-4.7-27.2-4.9c-1.7,0-3.5,0-4.9,0.8c-2.9,1.6-3.7,5.4-3.9,8.8c-0.2,3.6-0.2,7.3,0.1,10.9"/>
<linearGradient id="XMLID_27_" gradientUnits="userSpaceOnUse" x1="31.1837" y1="36.7765" x2="33.2396" y2="40.2667">
	<stop  offset="0" style="stop-color:#F49F5D"/>
	<stop  offset="0.2538" style="stop-color:#F29354"/>
	<stop  offset="0.6148" style="stop-color:#F0894C"/>
	<stop  offset="1" style="stop-color:#F0864A"/>
</linearGradient>
<path id="T" opacity="0.56" fill="url(#XMLID_27_)" d="M15.7,63.9c-1.1-2.2-0.7-4.9,0.5-7s3.1-3.8,5-5.3
	c12-9.5,26.7-15.9,42-16.6c-2.8-2.1-6.3-3-9.8-3.2c-3.5-0.1-6.9,0.5-10.3,1.4c-2,0.5-4.1,1.1-6,1.8c-2.7,1-5.3,2.2-7.9,3.4
	c-1.5,0.7-2.9,1.4-4.2,2.4c-1.5,1.2-2.8,2.7-4,4.2c-2.3,2.9-4.6,5.9-5.8,9.4c-0.7,2.1-1,4.3-1.3,6.5c-0.2,1.3-0.2,2.8,0.8,3.5
	c0.5,0.4,1.5,0.1,1.4-0.5"/>
<linearGradient id="XMLID_28_" gradientUnits="userSpaceOnUse" x1="98.9682" y1="74.948" x2="103.5842" y2="82.7844">
	<stop  offset="0" style="stop-color:#F49F5D"/>
	<stop  offset="0.2538" style="stop-color:#F29354"/>
	<stop  offset="0.6148" style="stop-color:#F0894C"/>
	<stop  offset="1" style="stop-color:#F0864A"/>
</linearGradient>
<path id="XMLID_2520_" opacity="0.56" fill="url(#XMLID_28_)" d="M93.6,78.1c1.7,1.9,2.7,4.3,3.5,6.8c1.7,5.2,2.1,10.7,2.6,16.1
	c0.3,3.1,0.5,6.3,0.8,9.4c0.6-2.2,0.2-4.5-0.1-6.7c-0.6-4.1-0.9-8.3-0.8-12.5c0-2.1,0.2-4.3,0.8-6.3s1.9-3.9,3.8-5
	c1.4-0.8,3-1.1,4.5-1.2c2.7-0.3,5.6-0.1,8.1,1.2c2.4,1.3,4.3,4,3.9,6.7c2-2,1.9-5.7-0.1-7.7c-2-2-5.1-2.1-7.9-2.1
	c-4.3,0-8.6,0-12.9,0c-2,0-4.2,0-5.9,1.2"/>
<linearGradient id="XMLID_29_" gradientUnits="userSpaceOnUse" x1="101.2938" y1="127.6895" x2="91.9798" y2="135.4772">
	<stop  offset="0" style="stop-color:#F49F5D"/>
	<stop  offset="0.2538" style="stop-color:#F29354"/>
	<stop  offset="0.6148" style="stop-color:#F0894C"/>
	<stop  offset="1" style="stop-color:#F0864A"/>
</linearGradient>
<path id="XMLID_2519_" fill="url(#XMLID_29_)" d="M100,117.6c0.7,4.4-1.5,8.7-3.5,12.8c-0.7,1.5-1.4,3-1.6,4.6
	c3.5-0.2,7.1-0.4,10.6,0.4c-1-0.3-1.4-1.4-1.6-2.4c-0.6-2.1-1.2-4.2-1.7-6.3c-0.8-3-1.7-6-2-9.1"/>
<linearGradient id="XMLID_30_" gradientUnits="userSpaceOnUse" x1="130.4155" y1="94.7729" x2="132.5543" y2="98.4038">
	<stop  offset="0" style="stop-color:#F49F5D"/>
	<stop  offset="0.2538" style="stop-color:#F29354"/>
	<stop  offset="0.6148" style="stop-color:#F0894C"/>
	<stop  offset="1" style="stop-color:#F0864A"/>
</linearGradient>
<path id="XMLID_2518_" opacity="0.56" fill="url(#XMLID_30_)" d="M129.7,96.2c1.2,1.8,1.8,4,1.7,6.1c0,0.3,0.1,0.7,0.4,0.6
	c0.2,0,0.2-0.2,0.3-0.4c0.2-1,0.5-2,0.7-2.9c0.4-1.4,0.7-2.9,1.7-4c-1.6-0.2-3.2-0.2-4.9-0.3c0.1,0.4,0.3,0.7,0.7,0.9"/>
<linearGradient id="XMLID_31_" gradientUnits="userSpaceOnUse" x1="133.4628" y1="130.5685" x2="127.1962" y2="135.8082">
	<stop  offset="0" style="stop-color:#F49F5D"/>
	<stop  offset="0.2538" style="stop-color:#F29354"/>
	<stop  offset="0.6148" style="stop-color:#F0894C"/>
	<stop  offset="1" style="stop-color:#F0864A"/>
</linearGradient>
<path id="XMLID_2517_" fill="url(#XMLID_31_)" d="M132.9,124.9c-0.6,3.1-1.2,6.4-3.3,8.8c2.5,0,4.9,0,7.4,0
	c-1.9-2.5-3.3-5.2-4.3-8.1"/>
<linearGradient id="XMLID_32_" gradientUnits="userSpaceOnUse" x1="165.4043" y1="55.7771" x2="168.7721" y2="61.4944">
	<stop  offset="0" style="stop-color:#F49F5D"/>
	<stop  offset="0.2538" style="stop-color:#F29354"/>
	<stop  offset="0.6148" style="stop-color:#F0894C"/>
	<stop  offset="1" style="stop-color:#F0864A"/>
</linearGradient>
<path id="XMLID_2516_" fill="url(#XMLID_32_)" d="M166.3,64.8c1.1,0.5,2.4-0.3,2.9-1.4c0.5-1.1,0.3-2.4-0.1-3.5
	c-0.4-1.1-1.1-2.2-2.1-2.8c-0.8-0.5-1.8-0.7-2.7-0.7c1-0.5,2.1-0.6,3.2-0.5c0.6,0,1.3,0,1.9,0.3c0.9,0.4,1.4,1.3,1.7,2.2
	s0.2,1.9,0.2,2.8c0,0.6,0,1.2-0.4,1.8c-0.2,0.3-0.5,0.5-0.8,0.7c-1,0.7-2.2,1.1-3.4,1.3"/>
<linearGradient id="XMLID_33_" gradientUnits="userSpaceOnUse" x1="165.0177" y1="98.7479" x2="156.3127" y2="106.0263">
	<stop  offset="0" style="stop-color:#F49F5D"/>
	<stop  offset="0.2538" style="stop-color:#F29354"/>
	<stop  offset="0.6148" style="stop-color:#F0894C"/>
	<stop  offset="1" style="stop-color:#F0864A"/>
</linearGradient>
<path id="XMLID_2515_" fill="url(#XMLID_33_)" d="M157.1,99.4c0.9-0.1,1.7,0.4,2.5,0.7c1.7,0.8,3.6,1.3,5.4,1.2
	c1.9-0.2,3.7-1.1,4.7-2.7c0.3,1.6-0.8,3.2-2.3,4c-1.4,0.8-3.1,0.9-4.8,0.9c-1.4,0-2.8-0.1-4-0.8c-1.2-0.7-2-2.2-1.5-3.5"/>
<linearGradient id="XMLID_34_" gradientUnits="userSpaceOnUse" x1="202.5513" y1="136.8819" x2="193.0683" y2="144.8109">
	<stop  offset="0" style="stop-color:#F49F5D"/>
	<stop  offset="0.2538" style="stop-color:#F29354"/>
	<stop  offset="0.6148" style="stop-color:#F0894C"/>
	<stop  offset="1" style="stop-color:#F0864A"/>
</linearGradient>
<path id="XMLID_2514_" fill="url(#XMLID_34_)" d="M195.8,141.5c1.3,0.2,2.6-0.7,3.3-1.8s0.8-2.5,1-3.8c0.3-2.8,0.7-5.6,0.1-8.4
	c1.1,6.3,2.7,12.6,4.9,18.6c-1.8-1.1-3.5-2.1-5.3-3.2c-1.1-0.7-2.4-1.4-3.6-1.1"/>
<linearGradient id="XMLID_35_" gradientUnits="userSpaceOnUse" x1="191.8941" y1="101.48" x2="194.7822" y2="106.3829">
	<stop  offset="0" style="stop-color:#F49F5D"/>
	<stop  offset="0.2538" style="stop-color:#F29354"/>
	<stop  offset="0.6148" style="stop-color:#F0894C"/>
	<stop  offset="1" style="stop-color:#F0864A"/>
</linearGradient>
<path id="XMLID_2513_" opacity="0.56" fill="url(#XMLID_35_)" d="M185.4,105.6c4.1,0.3,8.1-1.1,12-2.4c1.9-0.7,4-1.5,5.1-3.2
	c-1.7,1.5-3.4,3-5.1,4.5c-0.7,0.6-1.3,1.2-2.1,1.6c-0.6,0.4-1.3,0.7-2,1c-2.8,1.1-5.8,1.5-8.8,1.3c0.4-1.2,0.8-2.3,1.4-3.3"/>
<linearGradient id="XMLID_36_" gradientUnits="userSpaceOnUse" x1="178.3294" y1="133.0104" x2="169.6064" y2="140.304">
	<stop  offset="0" style="stop-color:#F49F5D"/>
	<stop  offset="0.2538" style="stop-color:#F29354"/>
	<stop  offset="0.6148" style="stop-color:#F0894C"/>
	<stop  offset="1" style="stop-color:#F0864A"/>
</linearGradient>
<path id="XMLID_2512_" fill="url(#XMLID_36_)" d="M178.2,125.8c0,4.5-1.6,9-4.4,12.5c1.7-0.1,3.5,0.3,4.9,1.3
	c0.2,0.1,0.4,0.2,0.5,0.1c0.1-0.1,0.1-0.3,0.1-0.4c0-1.2,0-2.5-0.1-3.7c0-1.7,0-3.4-0.1-5.1c0-1.4-0.1-3-1.2-3.9"/>
<linearGradient id="XMLID_37_" gradientUnits="userSpaceOnUse" x1="311.1974" y1="93.6569" x2="317.9137" y2="93.6569">
	<stop  offset="0" style="stop-color:#F49F5D"/>
	<stop  offset="0.2538" style="stop-color:#F29354"/>
	<stop  offset="0.6148" style="stop-color:#F0894C"/>
	<stop  offset="1" style="stop-color:#F0864A"/>
</linearGradient>
<path id="XMLID_2508_" opacity="0.56" fill="url(#XMLID_37_)" d="M315.5,98.6c0.8,0.1,1.7-0.4,2-1.2c0.4-0.7,0.4-1.6,0.4-2.5
	c-0.1-1.9-0.4-3.8-1.7-5.2s-3.6-1.8-5-0.6c1.7,0.3,3.1,1.6,3.9,3.1c0.8,1.5,1.1,3.3,1.1,5c0,0.5,0,1.2-0.4,1.5"/>
<linearGradient id="XMLID_38_" gradientUnits="userSpaceOnUse" x1="293.7256" y1="97.9564" x2="301.5627" y2="97.9564">
	<stop  offset="0" style="stop-color:#F49F5D"/>
	<stop  offset="0.2538" style="stop-color:#F29354"/>
	<stop  offset="0.6148" style="stop-color:#F0894C"/>
	<stop  offset="1" style="stop-color:#F0864A"/>
</linearGradient>
<path id="XMLID_2507_" opacity="0.56" fill="url(#XMLID_38_)" d="M301.6,89.3c-0.7,1.2-1.2,2.6-1.5,4c-0.9,4.4,0.4,9-0.8,13.4
	c-0.8-0.9-1-2.1-1.2-3.3c-0.9-4.9-2.6-9.5-4.4-14.1c2.6,0,5.1,0,7.7,0"/>
<linearGradient id="XMLID_39_" gradientUnits="userSpaceOnUse" x1="299.9262" y1="133.1718" x2="290.6213" y2="140.9519">
	<stop  offset="0" style="stop-color:#F49F5D"/>
	<stop  offset="0.2538" style="stop-color:#F29354"/>
	<stop  offset="0.6148" style="stop-color:#F0894C"/>
	<stop  offset="1" style="stop-color:#F0864A"/>
</linearGradient>
<path id="XMLID_2506_" fill="url(#XMLID_39_)" d="M298.2,126.8c0.2,0.5,0.3,1.1,0.3,1.7c0.2,2.8-1.5,5.3-3.2,7.5
	c-0.8,1-1.7,2.1-2,3.4c0,0.1,0,0.3,0,0.4c0.1,0.2,0.4,0.2,0.6,0.2c2.5,0,5-0.2,7.5-0.5c0.1,0,0.2,0,0.3-0.1c0.1-0.1,0.1-0.2,0.1-0.4
	c0.1-1.8-1-3.4-1.6-5.2C299.6,131.5,299.8,128.7,298.2,126.8"/>
<linearGradient id="XMLID_40_" gradientUnits="userSpaceOnUse" x1="356.5769" y1="139.2812" x2="344.1809" y2="149.6458">
	<stop  offset="0" style="stop-color:#F49F5D"/>
	<stop  offset="0.2538" style="stop-color:#F29354"/>
	<stop  offset="0.6148" style="stop-color:#F0894C"/>
	<stop  offset="1" style="stop-color:#F0864A"/>
</linearGradient>
<path id="XMLID_2505_" fill="url(#XMLID_40_)" d="M350.6,123.1c-0.3,6.1-2.9,12.1-7.2,16.6c4.4-0.2,8.5,2.1,11.6,5.2
	c3.1,3.1,5.2,7,7.3,10.8c0-11.4-10.5-20.5-11.6-31.8"/>
<linearGradient id="XMLID_41_" gradientUnits="userSpaceOnUse" x1="344.5298" y1="-1.136" x2="342.153" y2="21.7409">
	<stop  offset="0" style="stop-color:#F49F5D"/>
	<stop  offset="0.2538" style="stop-color:#F29354"/>
	<stop  offset="0.6148" style="stop-color:#F0894C"/>
	<stop  offset="1" style="stop-color:#F0864A"/>
</linearGradient>
<path id="XMLID_2504_" opacity="0.56" fill="url(#XMLID_41_)" d="M350.1,22.7c0.4-2.4-1-4.7-2.4-6.7c-0.6-0.9-1.3-1.9-2.2-2.6
	c-1.2-0.9-2.8-1.1-4.3-1.2c-2.9-0.2-5.8,0-8.6,0.6c-2.9,0.6-5.8,1.6-8.6,2.7c-2.7,1-5.4,2-8.1,2.9c-3.5,1.3-7.1,2.6-10.2,4.6
	c-4.2,2.6-7.7,6.5-9.9,11c-0.2-2.1-0.3-4.3,0.4-6.3c1.2-3.6,4.6-6.1,8.1-7.5c3.5-1.4,7.4-2,10.9-3.4c1.9-0.7,3.6-1.6,5.5-2.4
	c7.8-3.3,16.4-4.6,24.9-4.6s17,1.2,25.4,2.6c2.9,0.5,5.8,0.9,8.7,1c3,0.1,6.4-0.1,8.7,1.8c-8.2,0-16.5,0-24.7-0.1
	c-2.1,0-4.3,0-6.3,0.6c-3.3,1-6.1,3.5-7.4,6.8"/>
<linearGradient id="XMLID_42_" gradientUnits="userSpaceOnUse" x1="405.9384" y1="57.7106" x2="385.6884" y2="71.2106">
	<stop  offset="0" style="stop-color:#F49F5D"/>
	<stop  offset="0.2538" style="stop-color:#F29354"/>
	<stop  offset="0.6148" style="stop-color:#F0894C"/>
	<stop  offset="1" style="stop-color:#F0864A"/>
</linearGradient>
<path id="XMLID_2503_" opacity="0.56" fill="url(#XMLID_42_)" d="M387.6,62.2c1.2-0.2,2.4-0.3,3.5-0.3c1.2,0.1,2.4,0.5,3.2,1.3
	c1,0.9,1.4,2.2,1.6,3.4c0.3,1.7,0.1,3.6-0.8,5.1c-0.9,1.5-2.4,2.7-4.2,2.8c0.4-0.9,0.8-1.8,1.1-2.7c0.2-0.5,0.4-1,0.4-1.5
	c0-0.6-0.2-1.2-0.5-1.8c-0.3-0.6-0.5-1.2-0.8-1.8c-0.2-0.4-0.4-0.9-0.6-1.3c-0.8-1.1-2.2-1.7-2.8-2.9"/>
<linearGradient id="XMLID_43_" gradientUnits="userSpaceOnUse" x1="366.2845" y1="56.5442" x2="376.0439" y2="73.1123">
	<stop  offset="0" style="stop-color:#F49F5D"/>
	<stop  offset="0.2538" style="stop-color:#F29354"/>
	<stop  offset="0.6148" style="stop-color:#F0894C"/>
	<stop  offset="1" style="stop-color:#F0864A"/>
</linearGradient>
<path id="XMLID_2502_" opacity="0.56" fill="url(#XMLID_43_)" d="M379.4,63.3c-1.2,0.7-2.2,1.7-2.8,2.9c-0.3,0.5-0.5,1-0.7,1.6
	c-1.7,4.8-2.9,9.8-3.4,14.9c-1-4.5-2.1-9-3.3-13.5c-0.5-2-1.1-3.9-1.9-5.8c3.9,0.9,8,1,12,0.4"/>
<linearGradient id="XMLID_44_" gradientUnits="userSpaceOnUse" x1="374.6836" y1="106.6904" x2="361.1246" y2="118.0275">
	<stop  offset="0" style="stop-color:#F49F5D"/>
	<stop  offset="0.2538" style="stop-color:#F29354"/>
	<stop  offset="0.6148" style="stop-color:#F0894C"/>
	<stop  offset="1" style="stop-color:#F0864A"/>
</linearGradient>
<path id="XMLID_2501_" fill="url(#XMLID_44_)" d="M374.3,98.1c-0.6,5.2-2.2,10.3-4.8,14.8c-0.8,1.4-1.7,2.8-2.2,4.4
	c1.9-0.2,3.8-0.5,5.7-0.7c0.3,0,0.7-0.1,0.9-0.3c0.3-0.3,0.3-0.7,0.3-1c0.1-2.2,0.3-4.5,0.4-6.7c0.1-1.1,0.2-2.3,0.1-3.4
	c0-2.4-0.4-4.7-0.7-7.1"/>
<linearGradient id="XMLID_45_" gradientUnits="userSpaceOnUse" x1="414.7965" y1="96.3493" x2="423.6552" y2="111.3883">
	<stop  offset="0" style="stop-color:#F49F5D"/>
	<stop  offset="0.2538" style="stop-color:#F29354"/>
	<stop  offset="0.6148" style="stop-color:#F0894C"/>
	<stop  offset="1" style="stop-color:#F0864A"/>
</linearGradient>
<path id="XMLID_2500_" opacity="0.56" fill="url(#XMLID_45_)" d="M418.5,113.4c1.9-0.6,3-2.5,3.6-4.3c1.6-5.1-0.4-10.8-4.3-14.5
	c1.7,0.2,3.2,1.3,4,2.8c0.3,0.7,0.5,1.5,0.7,2.2c0.7,3.2,0.9,6.5,0.8,9.7c0,0.7-0.1,1.4-0.4,2c-0.7,1.4-2.4,1.8-3.9,2"/>
<linearGradient id="XMLID_46_" gradientUnits="userSpaceOnUse" x1="403.1561" y1="129.9351" x2="392.8427" y2="138.5585">
	<stop  offset="0" style="stop-color:#F49F5D"/>
	<stop  offset="0.2538" style="stop-color:#F29354"/>
	<stop  offset="0.6148" style="stop-color:#F0894C"/>
	<stop  offset="1" style="stop-color:#F0864A"/>
</linearGradient>
<path id="XMLID_2499_" fill="url(#XMLID_46_)" d="M417.7,137c-3.2,2.1-7.7,2.3-11.1,0.3c-3.1-1.8-5.1-5.2-6.7-8.4
	c-0.9-1.8-1.8-3.7-2.3-5.7c-0.7-2.8-0.5-5.7-0.3-8.6c-1,8.8,1,17.8,5.6,25.4c1,1.7,2.5,3.5,4.5,3.6c0.8,0.1,1.6-0.2,2.4-0.5
	c3.1-1.1,5.9-3.1,7.9-5.7"/>
<linearGradient id="XMLID_47_" gradientUnits="userSpaceOnUse" x1="444.1265" y1="78.6987" x2="456.0135" y2="98.8788">
	<stop  offset="0" style="stop-color:#F49F5D"/>
	<stop  offset="0.2538" style="stop-color:#F29354"/>
	<stop  offset="0.6148" style="stop-color:#F0894C"/>
	<stop  offset="1" style="stop-color:#F0864A"/>
</linearGradient>
<path id="XMLID_2498_" opacity="0.56" fill="url(#XMLID_47_)" d="M453.8,79.7c1.8,0.2,3.4,1.6,4.2,3.2c0.8,1.7,1.1,3.5,1.4,5.4
	c0.7,4.7,1.3,9.4,2,14.1c-0.8-0.7-1.4-1.7-2.1-2.5c-1.7-1.6-4.5-1.7-6.6-0.6c-2.1,1.1-3.6,3-4.7,5.1c-0.2-3.2,0.2-6.9,2.8-8.7
	c1-0.7,2.2-1.1,3.1-1.9c1.6-1.5,1.6-4.1,1.5-6.3c-0.1-1.4-0.2-2.9-0.3-4.3c-0.1-1.2-0.3-2.7-1.3-3.3"/>
<linearGradient id="XMLID_48_" gradientUnits="userSpaceOnUse" x1="443.4038" y1="123.361" x2="433.1255" y2="131.955">
	<stop  offset="0" style="stop-color:#F49F5D"/>
	<stop  offset="0.2538" style="stop-color:#F29354"/>
	<stop  offset="0.6148" style="stop-color:#F0894C"/>
	<stop  offset="1" style="stop-color:#F0864A"/>
</linearGradient>
<path id="XMLID_2497_" fill="url(#XMLID_48_)" d="M439.5,112.1c-0.2,3.2-0.3,6.5-0.3,9.7c0,0.6,0,1.3,0.3,1.9
	c0.6,1.2,2.3,1.4,3.1,2.5c-1.5,1.3-1.9,3.7-1.2,5.6s2.3,3.4,4,4.4c-1.3,0.4-2.6-0.5-3.7-1.3c-0.9-0.7-1.7-1.4-2.5-2.2
	c-2.3-2.6-2.9-6.4-3.3-9.9c-0.1-0.7-0.2-1.4-0.1-2.1c0.1-1.2,0.7-2.4,1.2-3.5c0.7-1.4,1.4-2.8,2-4.2"/>
<linearGradient id="XMLID_49_" gradientUnits="userSpaceOnUse" x1="499.5262" y1="83.2051" x2="490.029" y2="95.2017">
	<stop  offset="0" style="stop-color:#F49F5D"/>
	<stop  offset="0.2538" style="stop-color:#F29354"/>
	<stop  offset="0.6148" style="stop-color:#F0894C"/>
	<stop  offset="1" style="stop-color:#F0864A"/>
</linearGradient>
<path id="XMLID_2491_" opacity="0.56" fill="url(#XMLID_49_)" d="M487.3,88.2c2-0.5,4.1,0.5,6,1.3c0.9,0.4,1.8,0.8,2.5,1.5
	c1.9,1.7,2,4.8,0.8,7.1c-0.3-0.5-0.5-1-0.8-1.5c-2.2-3.4-6.3-5.2-8.8-8.4"/>
<linearGradient id="XMLID_50_" gradientUnits="userSpaceOnUse" x1="475.4973" y1="69.3923" x2="483.982" y2="83.7965">
	<stop  offset="0" style="stop-color:#F49F5D"/>
	<stop  offset="0.2538" style="stop-color:#F29354"/>
	<stop  offset="0.6148" style="stop-color:#F0894C"/>
	<stop  offset="1" style="stop-color:#F0864A"/>
</linearGradient>
<path id="XMLID_2490_" opacity="0.56" fill="url(#XMLID_50_)" d="M481.1,75.3c1.8-0.1,3.6-1,4.7-2.4c0.4,1.5-0.1,3.1-0.6,4.6
	c-1.6,5.5-2.8,11.1-3.3,16.8c-0.9-6.2-0.7-12.4-0.5-18.7"/>
<linearGradient id="XMLID_51_" gradientUnits="userSpaceOnUse" x1="487.8917" y1="135.291" x2="476.0575" y2="145.1859">
	<stop  offset="0" style="stop-color:#F49F5D"/>
	<stop  offset="0.2538" style="stop-color:#F29354"/>
	<stop  offset="0.6148" style="stop-color:#F0894C"/>
	<stop  offset="1" style="stop-color:#F0864A"/>
</linearGradient>
<path id="XMLID_2489_" fill="url(#XMLID_51_)" d="M481.7,125.9c0.2,1.3,0.5,2.6,0.7,3.9c0.4,2.1,0.7,4.3,1.6,6.3
	c0.8,2,2.2,3.9,4.1,4.9c1,0.6,2.3,0.9,3.4,0.5c0.7-0.3,1.3-0.8,1.9-1.3c1.5-1.4,3.1-2.8,4.6-4.2c-0.5,2.6-1.2,5.2-2.8,7.4
	c-1.6,2.1-4.1,3.7-6.7,3.6c-0.6,0-1.2-0.2-1.7-0.5c-0.7-0.4-1.1-1.1-1.4-1.8c-1.1-1.9-2.1-3.8-2.4-5.9c-0.2-1.2-0.1-2.5-0.1-3.7
	c0-2.9-0.6-5.8-1.2-8.6"/>
</svg>
