<?xml version="1.0" encoding="utf-8"?>
<!-- Generator: Adobe Illustrator 18.1.0, SVG Export Plug-In . SVG Version: 6.00 Build 0)  -->
<svg version="1.1" id="Layer_1" xmlns="http://www.w3.org/2000/svg" xmlns:xlink="http://www.w3.org/1999/xlink" x="0px" y="0px"
	 viewBox="-454 355.4 989.8 199.2" enable-background="new -454 355.4 989.8 199.2" xml:space="preserve">
<path id="XMLID_376_" fill="none" stroke="#443269" stroke-miterlimit="10" d="M-454,554.2c17.3-0.7,34.7-1.4,52-2.1
	c14.9-0.6,29.8-1.2,44.4-4.3c40.2-8.5,73.7-35,110.3-53.6c50.4-25.6,106.7-36.4,162.3-46.6c93.5-17.1,191-33,282.3-6.8
	c28,8,54.7,19.8,82.6,28.2c37.7,11.2,78.3,13.5,117.6,13.8c14.2,0.1,28.6-0.5,42.4-3.9c9.7-2.4,19.1-6.2,28.3-9.9
	c15-6.1,30.6-12.5,41.5-24.5c12.1-13.4,16.6-31.7,20.8-49.2c3.1-13,6.2-26.5,4.1-39.7"/>
</svg>
